<?xml version="1.0" encoding="UTF-8" standalone="no"?>
<!-- Created with Inkscape (http://www.inkscape.org/) -->

<svg
   width="152mm"
   height="152mm"
   viewBox="0 0 152 152"
   version="1.1"
   id="svg5"
   inkscape:version="1.2.2 (732a01da63, 2022-12-09)"
   sodipodi:docname="icon.svg"
   inkscape:export-filename="icons\512x12\com.chappelastro.HQAnimate.png"
   inkscape:export-xdpi="86.698669"
   inkscape:export-ydpi="86.698669"
   xml:space="preserve"
   xmlns:inkscape="http://www.inkscape.org/namespaces/inkscape"
   xmlns:sodipodi="http://sodipodi.sourceforge.net/DTD/sodipodi-0.dtd"
   xmlns:xlink="http://www.w3.org/1999/xlink"
   xmlns="http://www.w3.org/2000/svg"
   xmlns:svg="http://www.w3.org/2000/svg"><sodipodi:namedview
     id="namedview7"
     pagecolor="#ffffff"
     bordercolor="#666666"
     borderopacity="1.0"
     inkscape:showpageshadow="2"
     inkscape:pageopacity="0.0"
     inkscape:pagecheckerboard="0"
     inkscape:deskcolor="#d1d1d1"
     inkscape:document-units="mm"
     showgrid="false"
     inkscape:zoom="0.35355339"
     inkscape:cx="231.93102"
     inkscape:cy="865.4987"
     inkscape:window-width="3840"
     inkscape:window-height="2089"
     inkscape:window-x="1912"
     inkscape:window-y="-8"
     inkscape:window-maximized="1"
     inkscape:current-layer="layer1" /><defs
     id="defs2"><linearGradient
       inkscape:collect="always"
       id="linearGradient3298"><stop
         style="stop-color:#4d4d4d;stop-opacity:1;"
         offset="0"
         id="stop3294" /><stop
         style="stop-color:#666666;stop-opacity:1;"
         offset="1"
         id="stop3296" /></linearGradient><linearGradient
       inkscape:collect="always"
       id="linearGradient2438"><stop
         style="stop-color:#4d4d4d;stop-opacity:1;"
         offset="0"
         id="stop2434" /><stop
         style="stop-color:#666666;stop-opacity:1;"
         offset="1"
         id="stop2436" /></linearGradient><linearGradient
       inkscape:collect="always"
       id="linearGradient972"><stop
         style="stop-color:#f3d9a5;stop-opacity:1;"
         offset="0"
         id="stop968" /><stop
         style="stop-color:#f3d9a5;stop-opacity:0.92460322;"
         offset="0.5"
         id="stop976" /><stop
         style="stop-color:#f2d8a6;stop-opacity:0.78571427;"
         offset="1"
         id="stop970" /></linearGradient><linearGradient
       inkscape:collect="always"
       id="linearGradient962"><stop
         style="stop-color:#a5641d;stop-opacity:1;"
         offset="0.13861385"
         id="stop958" /><stop
         style="stop-color:#955a17;stop-opacity:1;"
         offset="0.62871295"
         id="stop966" /><stop
         style="stop-color:#844e0b;stop-opacity:1;"
         offset="1"
         id="stop960" /></linearGradient><radialGradient
       inkscape:collect="always"
       xlink:href="#linearGradient962"
       id="radialGradient964"
       cx="-6.1792164"
       cy="51.372917"
       fx="-6.1792164"
       fy="51.372917"
       r="5.579381"
       gradientUnits="userSpaceOnUse"
       gradientTransform="matrix(1.0884875,0,0,1.0884875,-2.3003884,-8.902156)" /><radialGradient
       inkscape:collect="always"
       xlink:href="#linearGradient972"
       id="radialGradient974"
       cx="16.891094"
       cy="106.13705"
       fx="16.891094"
       fy="106.13705"
       r="40.753567"
       gradientTransform="matrix(1.0884875,0,0,0.99451741,-1.126172,0.84836338)"
       gradientUnits="userSpaceOnUse" /><linearGradient
       inkscape:collect="always"
       xlink:href="#linearGradient2438"
       id="linearGradient2440"
       x1="76.093033"
       y1="19.576582"
       x2="76.105431"
       y2="0.92345756"
       gradientUnits="userSpaceOnUse" /><linearGradient
       inkscape:collect="always"
       xlink:href="#linearGradient3298"
       id="linearGradient3300"
       x1="70.867508"
       y1="151.07657"
       x2="70.879906"
       y2="132.55573"
       gradientUnits="userSpaceOnUse" /></defs><g
     inkscape:label="Layer 1"
     inkscape:groupmode="layer"
     id="layer1"><rect
       style="fill:#000000;fill-opacity:1;stroke:#000000;stroke-width:0;stroke-opacity:0;stop-color:#000000"
       id="rect10797"
       width="150"
       height="150"
       x="1.0000005"
       y="1.0000008"
       rx="19.191908" /><g
       id="g8970"
       transform="matrix(0.97928706,0,0,0.97928706,1.1392184,1.4786457)"><ellipse
         style="fill:url(#radialGradient974);fill-opacity:1;stroke:#000000;stroke-width:0;stroke-opacity:0;stop-color:#000000"
         id="path2883"
         cx="17.259573"
         cy="106.4035"
         rx="44.359749"
         ry="40.530132"
         transform="rotate(-35.955282)" /><path
         id="path2883-2"
         style="fill:#060400;fill-opacity:1;stroke:#000000;stroke-width:0;stroke-opacity:0;stop-color:#000000"
         d="M 67.700216,63.951266 A 15.685179,88.771651 54.044718 0 0 34.738099,90.191041 40.57611,44.467585 54.044718 0 0 35.055584,91.35352 14.739338,83.418585 54.044718 0 1 68.255558,64.716886 14.739338,83.418585 54.044718 0 1 103.88352,41.425679 40.57611,44.467585 54.044718 0 0 102.90383,40.750423 15.685179,88.771651 54.044718 0 0 67.700216,63.951266 Z m 0.902349,1.244017 A 14.148188,80.072922 54.044718 0 0 35.306626,92.05772 40.57611,44.467585 54.044718 0 0 36.566622,95.296613 11.547129,65.351994 54.044718 0 1 70.12959,67.300507 11.547129,65.351994 54.044718 0 1 107.18521,44.072002 40.57611,44.467585 54.044718 0 0 104.49722,41.873721 14.148188,80.072922 54.044718 0 0 68.602565,65.195283 Z" /><path
         id="path9879"
         style="fill:#7d7259;fill-opacity:1;stroke:#000000;stroke-width:0;stroke-opacity:0;stop-color:#000000"
         d="M 143.57502,22.499315 A 15.667405,88.55638 54.044718 0 0 67.247426,63.31486 15.667405,88.55638 54.044718 0 0 4.6559498,127.77414 15.667405,88.55638 54.044718 0 0 4.7622189,127.99335 15.667405,88.55638 54.044718 0 0 50.802806,111.66558 40.530132,44.359749 54.044718 0 1 49.833578,110.98622 14.722636,83.216294 54.044718 0 1 9.0847997,124.8581 14.722636,83.216294 54.044718 0 1 8.9801961,124.63777 14.722636,83.216294 54.044718 0 1 67.80214,64.079895 14.722636,83.216294 54.044718 0 1 143.65512,26.95098 a 14.722636,83.216294 54.044718 0 1 0.15301,0.185277 14.722636,83.216294 54.044718 0 1 -22.33954,31.232866 40.530132,44.359749 54.044718 0 1 0.40449,1.143934 15.667405,88.55638 54.044718 0 0 26.25764,-35.512049 15.667405,88.55638 54.044718 0 0 -0.17526,-0.169143 15.667405,88.55638 54.044718 0 0 -4.38045,-1.33255 z m -5.80869,5.253977 a 14.132156,79.878744 54.044718 0 0 -69.617556,36.803983 14.132156,79.878744 54.044718 0 0 -56.465081,58.119775 14.132156,79.878744 54.044718 0 0 0.102928,0.2209 14.132156,79.878744 54.044718 0 0 37.428252,-12.34515 40.530132,44.359749 54.044718 0 1 -2.757462,-2.15212 11.534045,65.193515 54.044718 0 1 -22.783551,5.87547 11.534045,65.193515 54.044718 0 1 -0.100152,-0.22423 11.534045,65.193515 54.044718 0 1 46.100121,-47.391496 11.534045,65.193515 54.044718 0 1 59.390571,-29.125823 11.534045,65.193515 54.044718 0 1 0.15468,0.184165 11.534045,65.193515 54.044718 0 1 -9.50812,16.588722 40.530132,44.359749 54.044718 0 1 1.4761,3.347231 14.132156,79.878744 54.044718 0 0 19.91926,-28.558305 14.132156,79.878744 54.044718 0 0 -0.17859,-0.166917 14.132156,79.878744 54.044718 0 0 -3.1614,-1.176205 z" /><circle
         style="fill:#000000;fill-opacity:1;stroke:#000000;stroke-width:0;stroke-opacity:0;stop-color:#000000"
         id="path5237-7"
         cx="46.038124"
         cy="75.685371"
         r="6.0730858"
         transform="rotate(-28.50192)" /><circle
         style="fill:url(#radialGradient964);fill-opacity:1;stroke:#000000;stroke-width:0;stroke-opacity:0;stop-color:#000000"
         id="path5237"
         cx="-9.0263882"
         cy="47.016621"
         r="6.0730858"
         transform="rotate(-28.50192)" /></g><path
       id="rect10797-5"
       style="stroke:#ffffff;stroke-width:0;stroke-opacity:1;stop-color:#000000;fill:url(#linearGradient2440);fill-opacity:1"
       d="M 20.192049 0.99993896 C 17.320401 0.99993896 14.60246 1.6292323 12.161015 2.7502197 L 14.740702 2.7502197 C 15.650697 2.7502197 16.383496 3.4825025 16.383496 4.3924967 L 16.383496 16.107544 C 16.383496 17.017538 15.650697 17.749821 14.740702 17.749821 L 6.0259888 17.749821 C 5.1159936 17.749821 4.383195 17.017538 4.383195 16.107544 L 4.383195 9.2862549 C 2.3719732 12.202878 1.1508645 15.707724 1.017509 19.500102 L 150.98252 19.500102 C 150.84916 15.707724 149.62805 12.202878 147.61683 9.2862549 L 147.61683 16.107544 C 147.61683 17.017546 146.88403 17.749821 145.97404 17.749821 L 137.25932 17.749821 C 136.34932 17.749821 135.61653 17.017546 135.61653 16.107544 L 135.61653 4.3924967 C 135.61653 3.4824945 136.34932 2.7502197 137.25932 2.7502197 L 139.83901 2.7502197 C 137.39756 1.6292323 134.67962 0.99993896 131.80798 0.99993896 L 20.192049 0.99993896 z M 22.430155 2.7502197 L 31.144869 2.7502197 C 32.054864 2.7502197 32.787663 3.4825015 32.787663 4.3924967 L 32.787663 16.107544 C 32.787663 17.017539 32.054864 17.749821 31.144869 17.749821 L 22.430155 17.749821 C 21.52016 17.749821 20.787362 17.017539 20.787362 16.107544 L 20.787362 4.3924967 C 20.787362 3.4825015 21.52016 2.7502197 22.430155 2.7502197 z M 38.834322 2.7502197 L 47.549036 2.7502197 C 48.459032 2.7502197 49.191829 3.4825005 49.191829 4.3924967 L 49.191829 16.107544 C 49.191829 17.01754 48.459032 17.749821 47.549036 17.749821 L 38.834322 17.749821 C 37.924326 17.749821 37.191528 17.01754 37.191528 16.107544 L 37.191528 4.3924967 C 37.191528 3.4825005 37.924326 2.7502197 38.834322 2.7502197 z M 55.238489 2.7502197 L 63.953202 2.7502197 C 64.8632 2.7502197 65.595996 3.4824995 65.595996 4.3924967 L 65.595996 16.107544 C 65.595996 17.017541 64.8632 17.749821 63.953202 17.749821 L 55.238489 17.749821 C 54.328492 17.749821 53.595695 17.017541 53.595695 16.107544 L 53.595695 4.3924967 C 53.595695 3.4824995 54.328492 2.7502197 55.238489 2.7502197 z M 71.642655 2.7502197 L 80.357369 2.7502197 C 81.267367 2.7502197 82.000163 3.4824985 82.000163 4.3924967 L 82.000163 16.107544 C 82.000163 17.017542 81.267367 17.749821 80.357369 17.749821 L 71.642655 17.749821 C 70.732657 17.749821 69.999862 17.017542 69.999862 16.107544 L 69.999862 4.3924967 C 69.999862 3.4824985 70.732657 2.7502197 71.642655 2.7502197 z M 88.046822 2.7502197 L 96.761536 2.7502197 C 97.671535 2.7502197 98.404329 3.4824975 98.404329 4.3924967 L 98.404329 16.107544 C 98.404329 17.017543 97.671535 17.749821 96.761536 17.749821 L 88.046822 17.749821 C 87.136823 17.749821 86.404028 17.017543 86.404028 16.107544 L 86.404028 4.3924967 C 86.404028 3.4824975 87.136823 2.7502197 88.046822 2.7502197 z M 104.45099 2.7502197 L 113.1657 2.7502197 C 114.07571 2.7502197 114.8085 3.4824965 114.8085 4.3924967 L 114.8085 16.107544 C 114.8085 17.017544 114.07571 17.749821 113.1657 17.749821 L 104.45099 17.749821 C 103.54099 17.749821 102.80819 17.017544 102.80819 16.107544 L 102.80819 4.3924967 C 102.80819 3.4824965 103.54099 2.7502197 104.45099 2.7502197 z M 120.85516 2.7502197 L 129.56987 2.7502197 C 130.47987 2.7502197 131.21266 3.4824955 131.21266 4.3924967 L 131.21266 16.107544 C 131.21266 17.017545 130.47987 17.749821 129.56987 17.749821 L 120.85516 17.749821 C 119.94515 17.749821 119.21236 17.017545 119.21236 16.107544 L 119.21236 4.3924967 C 119.21236 3.4824955 119.94515 2.7502197 120.85516 2.7502197 z " /><path
       id="rect10797-6"
       style="fill:url(#linearGradient3300);fill-opacity:1;stroke:#000000;stroke-width:0;stroke-opacity:0;stop-color:#000000"
       d="M 1.017509 132.49992 C 1.1508645 136.2923 2.3719732 139.79715 4.383195 142.71377 L 4.383195 135.89248 C 4.383195 134.98248 5.1159936 134.2502 6.0259888 134.2502 L 14.740702 134.2502 C 15.650697 134.2502 16.383496 134.98248 16.383496 135.89248 L 16.383496 147.60753 C 16.383496 148.51752 15.650697 149.2498 14.740702 149.2498 L 12.161015 149.2498 C 14.602461 150.37079 17.320401 151.00009 20.192049 151.00009 L 131.80798 151.00009 C 134.67962 151.00009 137.39756 150.37079 139.83901 149.2498 L 137.25932 149.2498 C 136.34932 149.2498 135.61653 148.51753 135.61653 147.60753 L 135.61653 135.89248 C 135.61653 134.98248 136.34932 134.2502 137.25932 134.2502 L 145.97404 134.2502 C 146.88403 134.2502 147.61683 134.98248 147.61683 135.89248 L 147.61683 142.71377 C 149.62805 139.79715 150.84916 136.2923 150.98252 132.49992 L 1.017509 132.49992 z M 22.430155 134.2502 L 31.144869 134.2502 C 32.054864 134.2502 32.787663 134.98248 32.787663 135.89248 L 32.787663 147.60753 C 32.787663 148.51752 32.054864 149.2498 31.144869 149.2498 L 22.430155 149.2498 C 21.52016 149.2498 20.787362 148.51752 20.787362 147.60753 L 20.787362 135.89248 C 20.787362 134.98248 21.52016 134.2502 22.430155 134.2502 z M 38.834322 134.2502 L 47.549036 134.2502 C 48.459032 134.2502 49.191829 134.98248 49.191829 135.89248 L 49.191829 147.60753 C 49.191829 148.51752 48.459032 149.2498 47.549036 149.2498 L 38.834322 149.2498 C 37.924326 149.2498 37.191528 148.51752 37.191528 147.60753 L 37.191528 135.89248 C 37.191528 134.98248 37.924326 134.2502 38.834322 134.2502 z M 55.238489 134.2502 L 63.953202 134.2502 C 64.8632 134.2502 65.595996 134.98248 65.595996 135.89248 L 65.595996 147.60753 C 65.595996 148.51752 64.8632 149.2498 63.953202 149.2498 L 55.238489 149.2498 C 54.328492 149.2498 53.595695 148.51752 53.595695 147.60753 L 53.595695 135.89248 C 53.595695 134.98248 54.328492 134.2502 55.238489 134.2502 z M 71.642655 134.2502 L 80.357369 134.2502 C 81.267367 134.2502 82.000163 134.98248 82.000163 135.89248 L 82.000163 147.60753 C 82.000163 148.51752 81.267367 149.2498 80.357369 149.2498 L 71.642655 149.2498 C 70.732657 149.2498 69.999862 148.51752 69.999862 147.60753 L 69.999862 135.89248 C 69.999862 134.98248 70.732657 134.2502 71.642655 134.2502 z M 88.046822 134.2502 L 96.761536 134.2502 C 97.671535 134.2502 98.404329 134.98248 98.404329 135.89248 L 98.404329 147.60753 C 98.404329 148.51753 97.671535 149.2498 96.761536 149.2498 L 88.046822 149.2498 C 87.136823 149.2498 86.404028 148.51753 86.404028 147.60753 L 86.404028 135.89248 C 86.404028 134.98248 87.136823 134.2502 88.046822 134.2502 z M 104.45099 134.2502 L 113.1657 134.2502 C 114.07571 134.2502 114.8085 134.98248 114.8085 135.89248 L 114.8085 147.60753 C 114.8085 148.51753 114.07571 149.2498 113.1657 149.2498 L 104.45099 149.2498 C 103.54099 149.2498 102.80819 148.51753 102.80819 147.60753 L 102.80819 135.89248 C 102.80819 134.98248 103.54099 134.2502 104.45099 134.2502 z M 120.85516 134.2502 L 129.56987 134.2502 C 130.47987 134.2502 131.21266 134.98248 131.21266 135.89248 L 131.21266 147.60753 C 131.21266 148.51753 130.47987 149.2498 129.56987 149.2498 L 120.85516 149.2498 C 119.94515 149.2498 119.21236 148.51753 119.21236 147.60753 L 119.21236 135.89248 C 119.21236 134.98248 119.94515 134.2502 120.85516 134.2502 z " /></g></svg>
