<?xml version="1.0" encoding="UTF-8"?>
<svg width="152mm" height="152mm" version="1.1" viewBox="0 0 152 152" xml:space="preserve" xmlns="http://www.w3.org/2000/svg" xmlns:xlink="http://www.w3.org/1999/xlink"><defs><radialGradient id="radialGradient964" cx="-6.1792" cy="51.373" r="5.5794" gradientTransform="matrix(1.0885 0 0 1.0885 -2.3004 -8.9022)" gradientUnits="userSpaceOnUse"><stop stop-color="#a5641d" offset=".13861"/><stop stop-color="#955a17" offset=".62871"/><stop stop-color="#844e0b" offset="1"/></radialGradient><radialGradient id="radialGradient974" cx="16.891" cy="106.14" r="40.754" gradientTransform="matrix(1.0885 0 0 .99452 -1.1262 .84836)" gradientUnits="userSpaceOnUse"><stop stop-color="#f3d9a5" offset="0"/><stop stop-color="#f3d9a5" stop-opacity=".9246" offset=".5"/><stop stop-color="#f2d8a6" stop-opacity=".78571" offset="1"/></radialGradient><linearGradient id="linearGradient2440" x1="76.093" x2="76.105" y1="19.577" y2=".92346" gradientUnits="userSpaceOnUse"><stop stop-color="#4d4d4d" offset="0"/><stop stop-color="#666" offset="1"/></linearGradient><linearGradient id="linearGradient3300" x1="70.868" x2="70.88" y1="151.08" y2="132.56" gradientUnits="userSpaceOnUse"><stop stop-color="#4d4d4d" offset="0"/><stop stop-color="#666" offset="1"/></linearGradient></defs><g><rect x="1" y="1" width="150" height="150" rx="19.192" stop-color="#000000" stroke-opacity="0"/><g transform="matrix(.97929 0 0 .97929 1.1392 1.4786)" stroke-opacity="0"><ellipse transform="rotate(-35.955)" cx="17.26" cy="106.4" rx="44.36" ry="40.53" fill="url(#radialGradient974)" stop-color="#000000"/><path d="m67.7 63.951a15.685 88.772 54.045 0 0-32.962 26.24 40.576 44.468 54.045 0 0 0.31748 1.1625 14.739 83.419 54.045 0 1 33.2-26.637 14.739 83.419 54.045 0 1 35.628-23.291 40.576 44.468 54.045 0 0-0.97969-0.67526 15.685 88.772 54.045 0 0-35.204 23.201zm0.90235 1.244a14.148 80.073 54.045 0 0-33.296 26.862 40.576 44.468 54.045 0 0 1.26 3.2389 11.547 65.352 54.045 0 1 33.563-27.996 11.547 65.352 54.045 0 1 37.056-23.229 40.576 44.468 54.045 0 0-2.688-2.1983 14.148 80.073 54.045 0 0-35.895 23.322z" fill="#060400" stop-color="#000000"/><path d="m143.58 22.499a15.667 88.556 54.045 0 0-76.328 40.816 15.667 88.556 54.045 0 0-62.591 64.459 15.667 88.556 54.045 0 0 0.10627 0.21921 15.667 88.556 54.045 0 0 46.041-16.328 40.53 44.36 54.045 0 1-0.96923-0.67936 14.723 83.216 54.045 0 1-40.749 13.872 14.723 83.216 54.045 0 1-0.1046-0.22033 14.723 83.216 54.045 0 1 58.822-60.558 14.723 83.216 54.045 0 1 75.853-37.129 14.723 83.216 54.045 0 1 0.15301 0.18528 14.723 83.216 54.045 0 1-22.34 31.233 40.53 44.36 54.045 0 1 0.40449 1.1439 15.667 88.556 54.045 0 0 26.258-35.512 15.667 88.556 54.045 0 0-0.17526-0.16914 15.667 88.556 54.045 0 0-4.3804-1.3326zm-5.8087 5.254a14.132 79.879 54.045 0 0-69.618 36.804 14.132 79.879 54.045 0 0-56.465 58.12 14.132 79.879 54.045 0 0 0.10293 0.2209 14.132 79.879 54.045 0 0 37.428-12.345 40.53 44.36 54.045 0 1-2.7575-2.1521 11.534 65.194 54.045 0 1-22.784 5.8755 11.534 65.194 54.045 0 1-0.10015-0.22423 11.534 65.194 54.045 0 1 46.1-47.391 11.534 65.194 54.045 0 1 59.391-29.126 11.534 65.194 54.045 0 1 0.15468 0.18416 11.534 65.194 54.045 0 1-9.5081 16.589 40.53 44.36 54.045 0 1 1.4761 3.3472 14.132 79.879 54.045 0 0 19.919-28.558 14.132 79.879 54.045 0 0-0.17859-0.16692 14.132 79.879 54.045 0 0-3.1614-1.1762z" fill="#7d7259" stop-color="#000000"/><circle transform="rotate(-28.502)" cx="46.038" cy="75.685" r="6.0731" stop-color="#000000"/><circle transform="rotate(-28.502)" cx="-9.0264" cy="47.017" r="6.0731" fill="url(#radialGradient964)" stop-color="#000000"/></g><path d="m20.192 0.99994c-2.8716 0-5.5896 0.62929-8.031 1.7503h2.5797c0.91 0 1.6428 0.73228 1.6428 1.6423v11.715c0 0.90999-0.7328 1.6423-1.6428 1.6423h-8.7147c-0.91 0-1.6428-0.73228-1.6428-1.6423v-6.8213c-2.0112 2.9166-3.2323 6.4215-3.3657 10.214h149.97c-0.13336-3.7924-1.3545-7.2972-3.3657-10.214v6.8213c0 0.91-0.7328 1.6423-1.6428 1.6423h-8.7147c-0.91 0-1.6428-0.73228-1.6428-1.6423v-11.715c0-0.91 0.73279-1.6423 1.6428-1.6423h2.5797c-2.4414-1.121-5.1594-1.7503-8.031-1.7503h-111.62zm2.2381 1.7503h8.7147c0.91 0 1.6428 0.73228 1.6428 1.6423v11.715c0 0.91-0.7328 1.6423-1.6428 1.6423h-8.7147c-0.91 0-1.6428-0.73228-1.6428-1.6423v-11.715c0-0.91 0.7328-1.6423 1.6428-1.6423zm16.404 0h8.7147c0.91 0 1.6428 0.73228 1.6428 1.6423v11.715c0 0.91-0.7328 1.6423-1.6428 1.6423h-8.7147c-0.91 0-1.6428-0.73228-1.6428-1.6423v-11.715c0-0.91 0.7328-1.6423 1.6428-1.6423zm16.404 0h8.7147c0.91 0 1.6428 0.73228 1.6428 1.6423v11.715c0 0.91-0.7328 1.6423-1.6428 1.6423h-8.7147c-0.91 0-1.6428-0.73228-1.6428-1.6423v-11.715c0-0.91 0.7328-1.6423 1.6428-1.6423zm16.404 0h8.7147c0.91 0 1.6428 0.73228 1.6428 1.6423v11.715c0 0.91-0.7328 1.6423-1.6428 1.6423h-8.7147c-0.91 0-1.6428-0.73228-1.6428-1.6423v-11.715c0-0.91 0.7328-1.6423 1.6428-1.6423zm16.404 0h8.7147c0.91 0 1.6428 0.73228 1.6428 1.6423v11.715c0 0.91-0.73279 1.6423-1.6428 1.6423h-8.7147c-0.91 0-1.6428-0.73228-1.6428-1.6423v-11.715c0-0.91 0.7328-1.6423 1.6428-1.6423zm16.404 0h8.7147c0.91001 0 1.6428 0.73228 1.6428 1.6423v11.715c0 0.91-0.73279 1.6423-1.6428 1.6423h-8.7147c-0.91 0-1.6428-0.73228-1.6428-1.6423v-11.715c0-0.91 0.7328-1.6423 1.6428-1.6423zm16.404 0h8.7147c0.91 0 1.6428 0.73228 1.6428 1.6423v11.715c0 0.91-0.73279 1.6423-1.6428 1.6423h-8.7147c-0.91001 0-1.6428-0.73228-1.6428-1.6423v-11.715c0-0.91 0.73279-1.6423 1.6428-1.6423z" fill="url(#linearGradient2440)" stop-color="#000000" stroke-width="0"/><path d="m1.0175 132.5c0.13336 3.7924 1.3545 7.2972 3.3657 10.214v-6.8213c0-0.91 0.7328-1.6423 1.6428-1.6423h8.7147c0.91 0 1.6428 0.73228 1.6428 1.6423v11.715c0 0.90999-0.7328 1.6423-1.6428 1.6423h-2.5797c2.4414 1.121 5.1594 1.7503 8.031 1.7503h111.62c2.8716 0 5.5896-0.6293 8.031-1.7503h-2.5797c-0.91 0-1.6428-0.73227-1.6428-1.6423v-11.715c0-0.91 0.73279-1.6423 1.6428-1.6423h8.7147c0.90999 0 1.6428 0.73228 1.6428 1.6423v6.8213c2.0112-2.9166 3.2323-6.4215 3.3657-10.214h-149.97zm21.413 1.7503h8.7147c0.91 0 1.6428 0.73228 1.6428 1.6423v11.715c0 0.90999-0.7328 1.6423-1.6428 1.6423h-8.7147c-0.91 0-1.6428-0.73228-1.6428-1.6423v-11.715c0-0.91 0.7328-1.6423 1.6428-1.6423zm16.404 0h8.7147c0.91 0 1.6428 0.73228 1.6428 1.6423v11.715c0 0.90999-0.7328 1.6423-1.6428 1.6423h-8.7147c-0.91 0-1.6428-0.73228-1.6428-1.6423v-11.715c0-0.91 0.7328-1.6423 1.6428-1.6423zm16.404 0h8.7147c0.91 0 1.6428 0.73228 1.6428 1.6423v11.715c0 0.90999-0.7328 1.6423-1.6428 1.6423h-8.7147c-0.91 0-1.6428-0.73228-1.6428-1.6423v-11.715c0-0.91 0.7328-1.6423 1.6428-1.6423zm16.404 0h8.7147c0.91 0 1.6428 0.73228 1.6428 1.6423v11.715c0 0.90999-0.7328 1.6423-1.6428 1.6423h-8.7147c-0.91 0-1.6428-0.73228-1.6428-1.6423v-11.715c0-0.91 0.7328-1.6423 1.6428-1.6423zm16.404 0h8.7147c0.91 0 1.6428 0.73228 1.6428 1.6423v11.715c0 0.91-0.73279 1.6423-1.6428 1.6423h-8.7147c-0.91 0-1.6428-0.73227-1.6428-1.6423v-11.715c0-0.91 0.7328-1.6423 1.6428-1.6423zm16.404 0h8.7147c0.91001 0 1.6428 0.73228 1.6428 1.6423v11.715c0 0.91-0.73279 1.6423-1.6428 1.6423h-8.7147c-0.91 0-1.6428-0.73227-1.6428-1.6423v-11.715c0-0.91 0.7328-1.6423 1.6428-1.6423zm16.404 0h8.7147c0.91 0 1.6428 0.73228 1.6428 1.6423v11.715c0 0.91-0.73279 1.6423-1.6428 1.6423h-8.7147c-0.91001 0-1.6428-0.73227-1.6428-1.6423v-11.715c0-0.91 0.73279-1.6423 1.6428-1.6423z" fill="url(#linearGradient3300)" stop-color="#000000" stroke-opacity="0"/></g></svg>
